<?xml version="1.0" standalone="no"?>
<!DOCTYPE svg PUBLIC "-//W3C//DTD SVG 20010904//EN"
 "http://www.w3.org/TR/2001/REC-SVG-20010904/DTD/svg10.dtd">
<svg version="1.0" xmlns="http://www.w3.org/2000/svg"
 width="300.000000pt" height="213.000000pt" viewBox="0 0 300.000000 213.000000"
 preserveAspectRatio="xMidYMid meet">

<g transform="translate(0.000000,213.000000) scale(0.100000,-0.100000)"
fill="#000000" stroke="none">
<path d="M1484 2040 c-48 -49 -92 -96 -96 -104 -10 -18 -115 -99 -155 -120
-15 -8 -45 -35 -66 -60 -21 -25 -46 -46 -57 -46 -20 0 -70 76 -70 107 0 24
-19 43 -41 43 -10 0 -42 27 -72 61 -47 53 -59 61 -91 62 -29 1 -44 -6 -74 -35
-20 -20 -46 -40 -58 -46 -11 -6 -42 -47 -68 -92 -27 -45 -60 -95 -74 -111 -24
-29 -25 -34 -19 -127 28 -445 330 -805 762 -908 98 -24 305 -24 408 0 158 36
300 108 423 215 181 156 300 381 334 633 11 79 11 81 -15 118 -15 21 -33 60
-41 87 -15 51 -35 73 -68 73 -12 1 -37 14 -56 30 -53 46 -82 41 -123 -22 -48
-75 -61 -84 -92 -64 -50 33 -97 80 -115 117 -24 47 -55 69 -96 69 -35 0 -52
16 -83 77 -15 30 -29 43 -50 48 -15 3 -39 17 -52 31 -27 29 -70 54 -92 54 -8
0 -55 -40 -103 -90z m421 -660 c4 -21 3 -45 -1 -52 -5 -10 -4 -11 7 0 20 18
31 15 25 -8 -3 -11 -9 -30 -12 -42 -6 -20 -5 -21 10 -9 19 16 22 1 5 -31 -9
-18 -8 -19 10 -13 19 6 21 3 17 -26 -2 -21 -10 -36 -22 -40 -11 -4 -13 -8 -5
-8 9 -1 12 -9 9 -26 -3 -14 -1 -23 6 -22 23 4 10 -27 -14 -34 -14 -4 -20 -8
-15 -8 6 -1 17 -5 25 -11 12 -7 12 -12 -4 -29 -11 -12 -25 -21 -33 -21 -18 0
-16 -10 5 -26 15 -12 13 -13 -22 -14 -38 0 -39 0 -21 20 10 11 13 20 7 20 -7
0 -13 18 -13 43 -2 34 -3 36 -6 12 -5 -33 -19 -46 -39 -38 -10 4 -11 10 -3 24
6 13 6 19 -1 19 -5 0 -10 5 -10 11 0 5 6 7 13 3 8 -6 8 -3 -1 9 -16 19 -23 67
-11 67 5 0 9 7 9 15 0 9 6 12 18 9 12 -4 10 0 -5 12 -26 19 -31 39 -8 30 18
-6 19 -1 5 25 -8 14 -7 19 2 19 9 0 9 3 0 12 -7 7 -12 19 -12 27 0 11 4 10 20
-4 22 -20 26 -14 9 16 -8 16 -5 30 11 65 12 24 25 44 30 44 5 0 11 -18 15 -40z
m-318 -65 c39 -37 65 -55 82 -55 20 0 23 -2 11 -10 -12 -8 -9 -15 20 -45 64
-66 17 -35 -76 51 -52 47 -100 84 -107 81 -6 -3 -57 -44 -111 -91 -100 -86
-146 -114 -89 -53 18 19 30 41 28 55 -1 13 4 22 12 22 10 0 12 -7 7 -22 -6
-23 -6 -22 22 3 80 70 137 119 140 119 3 0 30 -25 61 -55z m-342 -25 c3 -6 7
-28 7 -50 0 -22 5 -40 10 -40 6 0 6 -5 -1 -14 -12 -14 -5 -46 12 -58 6 -3 -3
-18 -19 -34 -27 -25 -27 -27 -6 -21 34 8 26 -9 -10 -23 l-33 -12 25 -8 c14 -5
21 -8 15 -9 -17 -2 -34 -48 -22 -60 8 -8 4 -11 -12 -11 -12 0 -30 -4 -39 -9
-18 -10 -61 13 -49 25 4 4 13 1 22 -6 8 -7 15 -8 15 -2 0 15 -28 35 -40 27 -9
-5 -12 7 -9 32 0 3 -6 10 -15 15 -19 11 -21 29 -3 25 6 -1 12 5 12 13 0 8 -7
15 -15 15 -8 0 -15 9 -15 20 0 14 6 19 18 17 21 -4 22 11 2 28 -19 16 -9 33
16 27 24 -6 24 1 2 26 -15 17 -15 19 -3 15 12 -5 16 1 15 25 0 22 5 33 17 35
14 3 19 -6 24 -37 7 -43 24 -47 24 -5 0 13 4 24 9 24 5 0 11 9 14 20 5 21 22
26 32 10z m336 -36 c18 -19 55 -52 82 -72 44 -34 47 -39 47 -83 0 -38 5 -51
22 -63 12 -9 17 -16 11 -16 -6 0 -25 11 -41 25 -17 14 -35 25 -41 25 -6 0 -11
16 -11 36 0 31 -3 35 -22 32 -19 -2 -23 -9 -22 -34 1 -28 -1 -31 -28 -32 -27
-1 -29 2 -26 31 3 28 0 32 -22 32 -21 0 -25 -5 -25 -31 0 -27 -4 -31 -27 -32
-18 0 -28 5 -28 13 0 9 -6 12 -15 9 -8 -4 -15 -1 -15 5 0 6 5 11 10 11 16 0
12 28 -5 32 -12 2 -11 8 7 30 13 15 40 47 61 72 21 25 42 46 46 46 4 0 23 -16
42 -36z m-257 -204 c-51 -39 -68 -39 -19 0 21 17 42 30 48 30 6 0 -7 -13 -29
-30z m29 -72 c-29 -14 -32 -64 -5 -71 9 -3 -2 -5 -25 -6 l-43 -1 0 45 0 45 48
-1 c41 0 44 -2 25 -11z m383 -19 c-3 -17 -6 -38 -6 -45 0 -11 -20 -14 -90 -14
l-89 0 4 29 c4 31 -9 48 -35 47 -10 -1 -16 -14 -18 -38 -3 -33 -7 -38 -28 -38
-22 0 -24 4 -24 45 l0 45 146 0 147 0 -7 -31z m-671 -77 c-6 -6 -45 33 -45 44
0 4 11 -3 25 -16 14 -13 23 -26 20 -28z m135 33 c0 -2 -10 -10 -22 -16 -21
-11 -22 -11 -9 4 13 16 31 23 31 12z"/>
<path d="M1177 1183 c-4 -3 -7 -11 -7 -17 0 -6 5 -5 12 2 6 6 9 14 7 17 -3 3
-9 2 -12 -2z"/>
<path d="M1507 1243 c-4 -3 -7 -15 -7 -25 0 -13 7 -18 25 -18 20 0 25 5 25 25
0 18 -5 25 -18 25 -10 0 -22 -3 -25 -7z"/>
<path d="M1625 972 c-3 -3 -5 -18 -5 -34 0 -25 4 -28 31 -28 28 0 30 2 27 33
-2 25 -8 32 -25 33 -12 1 -25 -1 -28 -4z"/>
</g>
</svg>
